<?xml version="1.0" encoding="UTF-8" standalone="no"?>
<svg
   xmlns:dc="http://purl.org/dc/elements/1.1/"
   xmlns:cc="http://creativecommons.org/ns#"
   xmlns:rdf="http://www.w3.org/1999/02/22-rdf-syntax-ns#"
   xmlns:svg="http://www.w3.org/2000/svg"
   xmlns="http://www.w3.org/2000/svg"
   viewBox="0 0 49.999997 50"
   height="50"
   width="49.999996"
   xml:space="preserve"
   version="1.1"
   id="svg2"><metadata
     id="metadata8"><rdf:RDF><cc:Work
         rdf:about=""><dc:format>image/svg+xml</dc:format><dc:type
           rdf:resource="http://purl.org/dc/dcmitype/StillImage" /><dc:title></dc:title></cc:Work></rdf:RDF></metadata><defs
     id="defs6"><clipPath
       id="clipPath16"
       clipPathUnits="userSpaceOnUse"><path
         id="path18"
         d="m 0,651.969 595.276,0 L 595.276,0 0,0 0,651.969 Z" /></clipPath></defs><g
     transform="matrix(1.25,0,0,-1.25,-359.97043,508.48362)"
     id="g10"><g
       transform="matrix(0.06559941,0,0,0.06567241,287.77328,361.38567)"
       style="fill:#ffffff;fill-opacity:1"
       id="g3784"><g
         style="fill:#ffffff;fill-opacity:1"
         id="g20"
         transform="translate(146.9844,367.0078)"><path
           d="M 0,0 C -0.073,0.609 -0.147,1.22 -0.213,1.829 L -21.644,19.924 -0.18,38.039 c 0.11,0.974 0.228,1.945 0.352,2.913 4.288,32.813 18.411,62.533 39.296,86.121 L 25,141.544 C 0.772,114.561 -15.542,80.329 -20.239,42.483 l -27.575,-22.12 27.575,-23.284 c 4.686,-37.749 20.932,-71.9 45.056,-98.851 l 14.471,14.469 C 18.206,-63.415 4.051,-33.273 0,0"
           style="fill:#ffffff;fill-opacity:1;fill-rule:nonzero;stroke:none"
           id="path22" /></g><g
         style="fill:#ffffff;fill-opacity:1"
         id="g24"
         transform="translate(516.7881,386.7695)"><path
           d="m 0,0 -27.574,22.12 c -4.686,37.751 -20.927,71.907 -45.052,98.857 l -14.469,-14.469 c 20.787,-23.551 34.834,-53.195 39.108,-85.917 0.131,-0.968 0.246,-1.94 0.352,-2.911 l 21.464,-18.118 -21.426,-18.095 c -0.064,-0.61 -0.144,-1.219 -0.218,-1.828 -4.014,-33.021 -17.985,-62.965 -38.803,-86.768 l 14.474,-14.47 c 23.859,26.867 39.915,60.822 44.57,98.319 L 0,0 Z"
           style="fill:#ffffff;fill-opacity:1;fill-rule:nonzero;stroke:none"
           id="path26" /></g><g
         style="fill:#ffffff;fill-opacity:1"
         id="g28"
         transform="translate(287.9175,547.501)"><path
           d="M 0,0 C 0.609,0.073 1.218,0.145 1.831,0.214 L 19.928,21.641 38.041,0.176 c 0.975,-0.108 1.939,-0.226 2.914,-0.353 32.852,-4.289 62.596,-18.438 86.196,-39.362 l 14.472,14.467 C 114.621,-0.807 80.361,15.536 42.48,20.241 L 20.367,47.809 -2.921,20.241 c -37.502,-4.657 -71.456,-20.716 -98.321,-44.577 l 14.473,-14.475 C -62.969,-17.994 -33.019,-4.023 0,0"
           style="fill:#ffffff;fill-opacity:1;fill-rule:nonzero;stroke:none"
           id="path30" /></g><g
         style="fill:#ffffff;fill-opacity:1"
         id="g32"
         transform="translate(308.2842,642.6021)"><path
           d="m 0,0 -11.802,-26.72 c 0,0 8.677,-5.896 11.802,-12.491 3.119,6.595 11.797,12.491 11.797,12.491 L 0,0 Z"
           style="fill:#ffffff;fill-opacity:1;fill-rule:nonzero;stroke:none"
           id="path34" /></g><g
         style="fill:#ffffff;fill-opacity:1"
         id="g36"
         transform="translate(51.8765,387.3696)"><path
           d="m 0,0 26.725,-11.799 c 0,0 5.893,8.674 12.491,11.799 C 32.618,3.121 26.725,11.796 26.725,11.796 L 0,0 Z"
           style="fill:#ffffff;fill-opacity:1;fill-rule:nonzero;stroke:none"
           id="path38" /></g><g
         style="fill:#ffffff;fill-opacity:1"
         id="g40"
         transform="translate(564.0762,386.7695)"><path
           d="m 0,0 -26.719,-11.798 c 0,0 -5.895,8.672 -12.489,11.798 6.594,3.122 12.489,11.797 12.489,11.797 L 0,0 Z"
           style="fill:#ffffff;fill-opacity:1;fill-rule:nonzero;stroke:none"
           id="path42" /></g><g
         style="fill:#ffffff;fill-opacity:1"
         id="g44"
         transform="translate(308.2842,130.9717)"><path
           d="m 0,0 -11.802,26.723 c 0,0 8.677,5.897 11.802,12.489 C 3.119,32.62 11.797,26.723 11.797,26.723 L 0,0 Z"
           style="fill:#ffffff;fill-opacity:1;fill-rule:nonzero;stroke:none"
           id="path46" /></g><g
         style="fill:#ffffff;fill-opacity:1"
         id="g48"
         transform="translate(328.8721,226.2461)"><path
           d="m 0,0 c -0.975,-0.125 -1.936,-0.245 -2.914,-0.351 l -18.112,-21.464 -18.1,21.43 c -0.609,0.065 -1.218,0.137 -1.829,0.211 -33.118,4.033 -63.146,18.079 -86.979,39.001 l -14.473,-14.475 c 26.898,-23.965 60.932,-40.096 98.531,-44.769 l 23.288,-27.566 22.113,27.566 c 7.794,0.972 15.424,2.454 22.88,4.378 C 18.359,-9.757 10.971,-4.303 2.145,0.325 1.429,0.219 0.72,0.099 0,0 M 86.106,39.287 C 73.913,28.49 60.067,19.519 45.016,12.762 48.55,6.761 51.163,0.739 52.884,-6.102 70.409,1.702 86.487,12.167 100.577,24.816 L 86.106,39.287 Z"
           style="fill:#ffffff;fill-opacity:1;fill-rule:nonzero;stroke:none"
           id="path50" /></g><g
         style="fill:#ffffff;fill-opacity:1"
         id="g52"
         transform="translate(345.376,208.3496)"><path
           d="m 0,0 c 3.835,0.863 7.901,1.857 7.901,1.857 -6.046,6.294 -13.429,11.729 -22.26,16.363 -2.037,-0.297 -3.226,-0.457 -3.226,-0.457 0,0 13.118,-11.982 10.871,-19.056 0,0 3.096,0.48 6.714,1.293"
           style="fill:#ffffff;fill-opacity:1;fill-rule:evenodd;stroke:none"
           id="path54" /></g><g
         style="fill:#ffffff;fill-opacity:1"
         id="g56"
         transform="translate(397.0342,418.96)"><path
           d="m 0,0 c -21.072,1.675 -49.022,-8.808 -69.025,-18.042 16.153,15.214 37.189,38.059 43.563,58.862 6.096,19.977 0.539,42.972 -18.617,47.073 -16.698,3.57 -33.651,-10.171 -44.984,-10.171 -11.312,0 -28.277,13.741 -44.968,10.171 -19.147,-4.101 -24.724,-27.096 -18.608,-47.073 6.37,-20.801 27.393,-43.641 43.538,-58.858 -20.002,9.234 -47.941,19.71 -69.009,18.038 -20.82,-1.688 -40.157,-15.317 -36.921,-34.631 2.825,-16.838 21.846,-27.56 26.008,-38.09 4.169,-10.521 -2.36,-31.352 7.092,-45.567 10.856,-16.292 34.285,-13.003 50.616,0.023 17.656,14.103 31.528,43.718 39.626,64.506 -5.803,-27.251 -12.923,-84.513 5.1,-122.61 22.412,-6.951 54.679,-21.426 66.186,-58.305 3.174,44.44 -8.361,51.82 -40.255,92.207 -18.695,23.679 -23.936,57.48 -24.817,86.299 8.208,-20.614 21.692,-48.533 38.679,-62.097 16.326,-13.026 39.767,-16.315 50.615,-0.023 9.458,14.215 2.933,35.046 7.085,45.567 4.177,10.53 23.185,21.252 26.013,38.09 C 40.156,-15.317 20.819,-1.688 0,0"
           style="fill:#ffffff;fill-opacity:1;fill-rule:evenodd;stroke:none"
           id="path58" /></g></g></g></svg>